<svg xmlns="http://www.w3.org/2000/svg" xmlns:xlink="http://www.w3.org/1999/xlink" width="1890" height="1614" viewBox="0 0 50000 42700" shape-rendering="geometricPrecision" text-rendering="geometricPrecision" image-rendering="optimizeQuality" fill-rule="evenodd"><defs><clipPath id="A"><path d="M19233 22254l-5647-4487L41370-6l8626-3v2522L19233 22254z"/></clipPath><clipPath id="B"><path d="M19210 42700l38-7287 9547 7287h-9585z"/></clipPath><mask id="C"><linearGradient id="D" x1="11059" y1="5678.07" x2="11596.6" y2="6496.7" xlink:href="#Q"><stop offset="0" stop-color="#fff"/><stop offset="1" stop-opacity="0" stop-color="#fff"/></linearGradient><path d="M3905-6h17475v10947H3905z" fill="url(#D)"/></mask><mask id="E"><linearGradient id="F" x1="2200.33" y1="8889.52" x2="1486.41" y2="9814.67" xlink:href="#Q"><stop offset="0" stop-color="#fff"/><stop offset=".33" stop-opacity=".5" stop-color="#fff"/><stop offset="1" stop-opacity="0" stop-color="#fff"/></linearGradient><path d="M-4 7151h3910v3798H-4z" fill="url(#F)"/></mask><mask id="G"><linearGradient id="H" x1="6171.42" y1="35963.9" x2="6531.28" y2="36516.9" xlink:href="#Q"><stop offset="0" stop-color="#fff"/><stop offset=".3" stop-opacity=".5" stop-color="#fff"/><stop offset="1" stop-opacity="0" stop-color="#fff"/></linearGradient><path d="M-4 31197h14754v10248H-4z" fill="url(#H)"/></mask><mask id="I"><linearGradient id="J" x1="16233.6" y1="25477.8" x2="16051.4" y2="25705.4" xlink:href="#Q"><stop offset="0" stop-color="#fff"/><stop offset=".3" stop-opacity=".5" stop-color="#fff"/><stop offset="1" stop-opacity="0" stop-color="#fff"/></linearGradient><path d="M13027 23400h6228v5187h-6228z" fill="url(#J)"/></mask><mask id="K"><linearGradient id="L" x1="31691.5" y1="19851.8" x2="31898.3" y2="20172.5" xlink:href="#Q"><stop offset="0" stop-color="#fff"/><stop offset="1" stop-opacity="0" stop-color="#fff"/></linearGradient><path d="M19244 8222h30752v21192H19244z" fill="url(#L)"/></mask><path id="M" d="M43049-7964l111 127-29464 25730-111-127z"/><path id="N" d="M43419-7541l111 127-29465 25730-110-127z"/><path id="O" d="M43493-7456l111 127-29465 25730-111-127z"/><path id="P" d="M28672 42856l-30 38-9405-7466z"/><linearGradient id="Q" gradientUnits="userSpaceOnUse"/></defs><path d="M-4 7152l3921 3089L19958-6-4-9z" fill="#b8b8b8"/><path d="M-7 7149l3 5607 3921-2515z" fill="#e87402"/><path d="M19958-6h8144L7518 12995l-3627-2754z" fill="#5c5c5c"/><path d="M-4 12756v5075l7522-4836-3627-2754z" fill="#999897"/><path d="M28102-6h13268L13586 17767l-6068-4772z" fill="#bbb"/><path d="M-4 17832v8657l13590-8722-6068-4772z" fill="#848481"/><path d="M-4 26489v13329l13590-8617-9617-7270z" fill="#949494"/><path d="M13586 17767l5647 4487 11 5541-5660-4395z" fill="#737373"/><path d="M19233 22254l12614-8099 3989 3061-16592 10579z" fill="#858584"/><path d="M31847 14155L49996 2513v5710l-14160 8993z" fill="#6b6b6b"/><g clip-path="url(#A)"><path d="M43051-7963l35 41-29464 25730-36-41z" fill="#e38e12"/><g fill="#e38f12"><use xlink:href="#M"/><path d="M43123-7880l111 127-29464 25731-111-127z"/><use xlink:href="#M" x="148" y="169"/></g><use xlink:href="#M" x="222" y="254" fill="#e49012"/><g fill="#e49013"><path d="M43345-7626l111 128-29464 25730-111-127z"/><use xlink:href="#N"/></g><g fill="#e49113"><use xlink:href="#O"/><use xlink:href="#O" x="74" y="85"/></g><use xlink:href="#O" x="148" y="169" fill="#e59113"/><use xlink:href="#O" x="222" y="254" fill="#e59213"/><g fill="#e59214"><use xlink:href="#O" x="296" y="339"/><path d="M43863-7033l111 127-29465 25731-111-128z"/></g><g fill="#e69314"><use xlink:href="#O" x="444" y="508"/><use xlink:href="#O" x="518" y="593"/><path d="M44085-6779l110 127-29464 25731-111-127z"/></g><g fill="#e69415"><path d="M44159-6694l110 127-29464 25730-111-127z"/><use xlink:href="#M" x="1183" y="1355"/></g><use xlink:href="#M" x="1257" y="1440" fill="#e79415"/><g fill="#e79515"><use xlink:href="#M" x="1331" y="1524"/><use xlink:href="#M" x="1405" y="1609"/></g><use xlink:href="#M" x="1479" y="1694" fill="#e79516"/><g fill="#e89616"><use xlink:href="#M" x="1553" y="1778"/><use xlink:href="#M" x="1627" y="1863"/><use xlink:href="#M" x="1701" y="1948"/></g><path d="M44824-5932l111 127-29464 25731-111-128z" fill="#e89716"/><use xlink:href="#M" x="1849" y="2117" fill="#e89717"/><g fill="#e99817"><use xlink:href="#M" x="1923" y="2202"/><path d="M45046-5678l111 128-29464 25730-111-127z"/><use xlink:href="#M" x="2071" y="2371"/><use xlink:href="#M" x="2145" y="2456"/></g><g fill="#e99918"><use xlink:href="#N" x="1849" y="2118"/><use xlink:href="#N" x="1923" y="2202"/><use xlink:href="#O" x="1923" y="2202"/></g><use xlink:href="#O" x="1997" y="2287" fill="#e99a18"/><g fill="#ea9a19"><use xlink:href="#O" x="2071" y="2371"/><use xlink:href="#O" x="2145" y="2456"/><use xlink:href="#O" x="2219" y="2541"/></g><path d="M45786-4831l111 127-29465 25731-111-127z" fill="#ea9b19"/><g fill="#ea9b1a"><use xlink:href="#O" x="2367" y="2710"/><use xlink:href="#O" x="2441" y="2795"/><path d="M46008-4576l110 127-29464 25730-111-127z"/></g><use xlink:href="#M" x="3032" y="3472" fill="#ea9c1a"/><g fill="#ea9c1b"><use xlink:href="#M" x="3106" y="3557"/><use xlink:href="#M" x="3180" y="3642"/><use xlink:href="#M" x="3254" y="3726"/></g><use xlink:href="#M" x="3328" y="3811" fill="#ea9d1b"/><use xlink:href="#M" x="3402" y="3896" fill="#ea9d1c"/><g fill="#eb9d1c"><path d="M46525-3984l111 127-29464 25731-111-128z"/><use xlink:href="#M" x="3550" y="4065"/><use xlink:href="#M" x="3624" y="4150"/></g><g fill="#eb9e1d"><path d="M46747-3730l111 127-29464 25731-111-127z"/><use xlink:href="#M" x="3772" y="4319"/><use xlink:href="#M" x="3846" y="4404"/><use xlink:href="#M" x="3920" y="4489"/></g><use xlink:href="#M" x="3994" y="4573" fill="#eb9f1d"/><g fill="#eb9f1e"><use xlink:href="#M" x="4068" y="4658"/><use xlink:href="#N" x="3772" y="4320"/><use xlink:href="#O" x="3772" y="4319"/></g><g fill="#eba01e"><use xlink:href="#O" x="3846" y="4404"/><use xlink:href="#O" x="3920" y="4489"/></g><g fill="#eba01f"><path d="M47487-2883l111 127-29465 25731-111-127z"/><use xlink:href="#O" x="4068" y="4658"/></g><use xlink:href="#O" x="4142" y="4743" fill="#eca01f"/><path d="M47709-2629l111 128-29465 25730-111-127z" fill="#eca11f"/><g fill="#eca120"><use xlink:href="#O" x="4290" y="4912"/><path d="M47857-2459l110 127-29464 25730-111-127z"/><path d="M47931-2374l110 127-29464 25730-111-127z"/><use xlink:href="#M" x="4955" y="5674"/></g><g fill="#eca220"><use xlink:href="#M" x="5029" y="5759"/><use xlink:href="#M" x="5103" y="5844"/></g><g fill="#eca221"><path d="M48226-2036l111 127-29464 25731-111-128z"/><use xlink:href="#M" x="5251" y="6013"/><use xlink:href="#M" x="5325" y="6098"/></g><g fill="#eca321"><path d="M48448-1782l111 127-29464 25731-111-127z"/><use xlink:href="#M" x="5473" y="6267"/></g><g fill="#eca322"><use xlink:href="#M" x="5547" y="6352"/><use xlink:href="#M" x="5621" y="6437"/><use xlink:href="#M" x="5695" y="6521"/></g><use xlink:href="#M" x="5769" y="6606" fill="#eca422"/><use xlink:href="#M" x="5843" y="6691" fill="#eda422"/><g fill="#eda423"><use xlink:href="#M" x="5917" y="6775"/><use xlink:href="#N" x="5621" y="6437"/><use xlink:href="#N" x="5695" y="6522"/><path d="M49188-935l111 127-29465 25731-111-127z"/></g><g fill="#eda523"><use xlink:href="#O" x="5769" y="6606"/><use xlink:href="#O" x="5843" y="6691"/></g><g fill="#eda524"><path d="M49410-681l111 128-29465 25730-111-127z"/><use xlink:href="#O" x="5991" y="6860"/><use xlink:href="#O" x="6065" y="6945"/><use xlink:href="#O" x="6139" y="7030"/></g><g fill="#eda624"><use xlink:href="#O" x="6213" y="7114"/><path d="M49780-257l110 127-29464 25730-111-127z"/></g><g fill="#eda625"><path d="M49854-172l110 127-29464 25730-111-127z"/><use xlink:href="#M" x="6878" y="7876"/><use xlink:href="#M" x="6952" y="7961"/><use xlink:href="#M" x="7026" y="8046"/></g><g fill="#eda725"><path d="M50149 166l111 127-29464 25731-111-127z"/><use xlink:href="#M" x="7174" y="8215"/></g><g fill="#eea726"><use xlink:href="#M" x="7248" y="8300"/><use xlink:href="#M" x="7322" y="8385"/><use xlink:href="#M" x="7396" y="8469"/><use xlink:href="#M" x="7470" y="8554"/></g><g fill="#eea826"><use xlink:href="#M" x="7544" y="8639"/><use xlink:href="#M" x="7618" y="8723"/><use xlink:href="#M" x="7692" y="8808"/></g><g fill="#eea827"><use xlink:href="#M" x="7766" y="8893"/><path d="M50889 1013l111 127-29464 25731-111-128z"/><use xlink:href="#N" x="7544" y="8639"/></g><g fill="#eea927"><use xlink:href="#O" x="7544" y="8639"/><path d="M51111 1267l111 128-29465 25730-111-127z"/><path d="M51185 1352l60 70-29464 25730-61-70z"/></g></g><path d="M35836 17216l78 7515 14082-9038V8194z" fill="#454545"/><path d="M19248 35413l30748-19720v27007H28795z" fill="#f8c443"/><g clip-path="url(#B)"><path d="M28795 42700l6-8-9435-7429-7 9z" fill="#5e5e5e"/><path d="M28811 42679l-29 38-9406-7466z" fill="#5f5f5e"/><path d="M28791 42704l-29 38-9406-7466z" fill="#60605f"/><path d="M28772 42730l-30 37-9406-7466z" fill="#616160"/><path d="M28752 42755l-30 38-9406-7466z" fill="#616161"/><path d="M28732 42780l-30 38-9406-7466z" fill="#626261"/><path d="M28712 42805l-30 38-9406-7466z" fill="#636362"/><path d="M28692 42831l-30 38-9405-7467z" fill="#646463"/><use xlink:href="#P" fill="#646464"/><use xlink:href="#P" x="-20" y="25" fill="#656564"/><path d="M28632 42907l-30 38-9405-7467z" fill="#666665"/><g fill="#676766"><use xlink:href="#P" x="-60" y="76"/><use xlink:href="#P" x="-80" y="101"/></g><path d="M28572 42982l-29 38-9406-7466z" fill="#686867"/><path d="M28552 43008l-29 38-9406-7466z" fill="#696968"/><path d="M28533 43033l-30 38-9406-7466z" fill="#696969"/><path d="M28513 43058l-30 38-9406-7466z" fill="#6a6a69"/><path d="M28493 43084l-30 38-9406-7467z" fill="#6b6b6a"/><path d="M28473 43109l-30 38-9406-7466z" fill="#6b6b6b"/><use xlink:href="#P" x="-219" y="278" fill="#6c6c6b"/><path d="M28433 43160l-30 38-9405-7467z" fill="#6d6d6c"/><use xlink:href="#P" x="-259" y="329" fill="#6d6d6d"/><use xlink:href="#P" x="-279" y="354" fill="#6e6e6d"/><g fill="#6f6f6e"><use xlink:href="#P" x="-299" y="379"/><use xlink:href="#P" x="-319" y="405"/></g><path d="M28333 43286l-29 38-9406-7466z" fill="#70706f"/><g fill="#717170"><path d="M28313 43311l-29 38-9406-7466z"/><path d="M28294 43337l-30 38-9406-7467z"/></g><path d="M28274 43362l-30 38-9406-7466z" fill="#727271"/><path d="M28254 43387l-30 38-9406-7466z" fill="#727272"/><path d="M28234 43413l-30 38-9406-7467z" fill="#737372"/><g fill="#747473"><use xlink:href="#P" x="-458" y="582"/><use xlink:href="#P" x="-478" y="607"/></g><g fill="#757574"><use xlink:href="#P" x="-498" y="632"/><path d="M28154 43514l-30 38-9405-7467z"/></g><use xlink:href="#P" x="-538" y="683" fill="#767675"/><use xlink:href="#P" x="-558" y="708" fill="#767676"/><path d="M28094 43590l-29 38-9406-7467z" fill="#777776"/><g fill="#787877"><path d="M28074 43615l-29 38-9406-7466z"/><path d="M28055 43640l-30 38-9406-7466z"/></g><g fill="#797978"><path d="M28035 43666l-30 37-9406-7466z"/><path d="M28015 43691l-30 38-9406-7466z"/></g><g fill="#7a7a79"><path d="M27995 43716l-30 38-9406-7466z"/><use xlink:href="#P" x="-697" y="885"/></g><g fill="#7b7b7a"><path d="M27955 43767l-30 38-9405-7467z"/><use xlink:href="#P" x="-737" y="936"/></g><use xlink:href="#P" x="-757" y="961" fill="#7c7c7b"/><path d="M27895 43843l-30 38-9405-7467z" fill="#7c7c7c"/><use xlink:href="#P" x="-797" y="1012" fill="#7d7d7c"/><path d="M27855 43893l-29 38-9406-7466z" fill="#7d7d7d"/><path d="M27835 43919l-29 37-9406-7466z" fill="#7e7e7d"/><path d="M27816 43944l-30 38-9406-7466z" fill="#7e7e7e"/><path d="M27796 43969l-30 38-9406-7466z" fill="#7f7f7e"/><path d="M27776 43994l-30 38-9406-7466z" fill="#7f7f7f"/><g fill="#80807f"><path d="M27756 44020l-30 38-9406-7467z"/><use xlink:href="#P" x="-936" y="1189"/></g><g fill="#818180"><use xlink:href="#P" x="-956" y="1214"/><path d="M27696 44096l-30 38-9405-7467z"/></g><g fill="#828281"><use xlink:href="#P" x="-996" y="1265"/><use xlink:href="#P" x="-1016" y="1290"/></g><g fill="#838382"><path d="M27636 44172l-30 37-9405-7466z"/><path d="M27616 44197l-29 38-9406-7466z"/></g><g fill="#848483"><path d="M27596 44222l-29 38-9406-7466z"/><path d="M27577 44247l-30 38-9406-7466z"/></g><g fill="#858584"><path d="M27557 44273l-30 38-9406-7467z"/><path d="M27537 44298l-30 38-9406-7466z"/><path d="M27517 44323l-30 38-9406-7466z"/><path d="M27497 44349l-30 38-9405-7467z"/></g><use xlink:href="#P" x="-1195" y="1518" fill="#868585"/><g fill="#868685"><use xlink:href="#P" x="-1215" y="1543"/><use xlink:href="#P" x="-1235" y="1568"/><use xlink:href="#P" x="-1255" y="1594"/><use xlink:href="#P" x="-1275" y="1619"/><path d="M27377 44500l-29 38-9406-7466z"/></g><path d="M27357 44526l-29 38-9406-7467z" fill="#878686"/><g fill="#878786"><path d="M27338 44551l-30 38-9406-7466z"/><path d="M27318 44576l-30 38-9406-7466z"/><path d="M27298 44602l-30 38-9406-7467z"/></g><path d="M27278 44627l-30 38-9406-7466z" fill="#888786"/><use xlink:href="#P" x="-1414" y="1796" fill="#888787"/><g fill="#888887"><use xlink:href="#P" x="-1434" y="1821"/><path d="M27218 44703l-30 38-9405-7467z"/><use xlink:href="#P" x="-1474" y="1872"/></g><use xlink:href="#P" x="-1494" y="1897" fill="#898888"/><g fill="#898988"><path d="M27158 44779l-30 38-9405-7467z"/><path d="M27138 44804l-29 38-9406-7466z"/></g><path d="M27118 44829l-29 38-9406-7466z" fill="#8a8988"/><path d="M27099 44855l-30 37-9406-7466z" fill="#8a8989"/><g fill="#8a8a89"><path d="M27079 44880l-30 38-9406-7466z"/><path d="M27059 44905l-30 38-9406-7466z"/></g><path d="M27039 44930l-30 38-9406-7466z" fill="#8b8a89"/><path d="M27019 44956l-30 38-9405-7467z" fill="#8b8a8a"/><use xlink:href="#P" x="-1673" y="2125" fill="#8b8b8a"/><use xlink:href="#P" x="-1693" y="2150" fill="#8c8b8a"/><path d="M26959 45032l-30 38-9405-7467z" fill="#8c8b8b"/><use xlink:href="#P" x="-1733" y="2201" fill="#8c8c8b"/><use xlink:href="#P" x="-1753" y="2226" fill="#8d8c8b"/><path d="M26899 45108l-29 37-9406-7466z" fill="#8d8c8c"/><g fill="#8e8d8c"><path d="M26879 45133l-29 38-9406-7466z"/><path d="M26860 45158l-30 38-9406-7466z"/></g><path d="M26840 45183l-30 38-9406-7466z" fill="#8e8d8d"/><g fill="#8f8e8d"><path d="M26820 45209l-30 38-9406-7467z"/><path d="M26800 45234l-30 38-9406-7466z"/></g><use xlink:href="#P" x="-1892" y="2403" fill="#8f8e8e"/><path d="M26760 45285l-30 38-9405-7467z" fill="#908e8e"/><use xlink:href="#P" x="-1932" y="2454" fill="#908f8e"/><use xlink:href="#P" x="-1952" y="2479" fill="#908f8f"/><path d="M26700 45361l-30 37-9405-7466z" fill="#918f8f"/><use xlink:href="#P" x="-1992" y="2530" fill="#91908f"/><path d="M26660 45411l-29 38-9406-7466z" fill="#919090"/><g fill="#929090"><path d="M26640 45436l-29 38-9406-7466z"/><path d="M26621 45462l-30 38-9406-7467z"/></g><path d="M26601 45487l-30 38-9406-7466z" fill="#929190"/><path d="M26581 45512l-30 38-9406-7466z" fill="#929191"/><g fill="#939191"><path d="M26561 45538l-30 38-9406-7467z"/><use xlink:href="#P" x="-2131" y="2707"/><use xlink:href="#P" x="-2151" y="2732"/></g><use xlink:href="#P" x="-2171" y="2757" fill="#939291"/><g fill="#949292"><use xlink:href="#P" x="-2191" y="2783"/><use xlink:href="#P" x="-2211" y="2808"/><use xlink:href="#P" x="-2231" y="2833"/><path d="M26421 45715l-29 38-9406-7467z"/></g><path d="M26401 45740l-29 38-9406-7466z" fill="#949392"/><g fill="#959393"><path d="M26382 45765l-30 38-9406-7466z"/><path d="M26362 45791l-30 38-9406-7467z"/><path d="M26342 45816l-30 38-9406-7466z"/><path d="M26322 45841l-30 38-9406-7466z"/><use xlink:href="#P" x="-2370" y="3010"/></g><use xlink:href="#P" x="-2390" y="3036" fill="#959494"/><g fill="#969494"><use xlink:href="#P" x="-2410" y="3061"/><use xlink:href="#P" x="-2430" y="3086"/><path d="M26222 45968l-1095 1391-9435-7428 1095-1392z"/></g></g><path d="M35840 17213L19244 27795l-5660-4395 2 7801L-4 39818v2882h19214l38-7287 16668-10689z" fill="#5c5c5c"/><path d="M3906 10232L19958-6h1422L4815 10941z" fill="#454545" mask="url(#C)"/><path d="M3906 10232L-4 7152l23 1623 2778 2174z" fill="#9e570f" mask="url(#E)"/><g fill="#454545"><path d="M-4 39818l13585-8621 1169 889L19 41444z" mask="url(#G)"/><path d="M13584 23400l5671 4369-10 818-6218-4973z" mask="url(#I)"/></g><path d="M3969 23931l9617-6164-5 13430z" fill="#b8b8b8"/><path d="M19245 27760L49996 8223l-23 1923-30728 19268z" fill="#454545" mask="url(#K)"/></svg>