<svg xmlns="http://www.w3.org/2000/svg" height="768" width="1024"><path fill="#004080" d="M0 0h1024v768H0z"/><path d="M293.593 320.55h-9.18l-57.96 126h9.9l52.56-115.92 52.74 115.92h9.9z" fill="#fff"/><path d="M448.347 402.45c9.36-2.7 16.74-7.38 21.78-14.22s7.74-15.12 7.74-25.2c0-13.14-4.5-23.58-13.5-31.14s-21.42-11.34-37.26-11.34h-45.18v8.28h45.18c13.32 0 23.58 3.06 30.78 9 7.02 5.94 10.62 14.4 10.62 25.2 0 10.98-3.6 19.44-10.62 25.38-7.2 5.94-17.46 8.82-30.78 8.82h-45.18v49.32h9.18v-41.22h36c3.6 0 7.74-.18 12.24-.9l30.06 42.12h10.44z" fill="#dedade"/><path d="M531.213 433.6c8.82 9.36 21.24 13.86 37.26 13.86 15.84 0 28.26-4.5 37.26-13.86 8.82-9.18 13.32-22.68 13.32-40.5v-72.54h-9.18v72.18c0 15.48-3.6 27.18-10.62 34.74-7.2 7.74-17.28 11.52-30.6 11.52-13.5 0-23.76-3.78-30.78-11.52-7.2-7.56-10.62-19.26-10.62-34.74v-72.18h-9.18v72.54c0 17.82 4.32 31.32 13.14 40.5z" fill="#c1b9c1"/><path d="M788.548 446.55h9l-.18-126h-7.56l-56.34 97.38-56.34-97.38h-7.74v126h9V339.1l52.74 90.72h4.5l52.74-91.08z" fill="#a094a0"/></svg>