<?xml version="1.0" encoding="UTF-8" standalone="no"?>
<svg
   xmlns:dc="http://purl.org/dc/elements/1.1/"
   xmlns:cc="http://creativecommons.org/ns#"
   xmlns:rdf="http://www.w3.org/1999/02/22-rdf-syntax-ns#"
   xmlns:svg="http://www.w3.org/2000/svg"
   xmlns="http://www.w3.org/2000/svg"
   xmlns:sodipodi="http://sodipodi.sourceforge.net/DTD/sodipodi-0.dtd"
   xmlns:inkscape="http://www.inkscape.org/namespaces/inkscape"
   width="64"
   height="96"
   fill-rule="evenodd"
   image-rendering="optimizeQuality"
   shape-rendering="geometricPrecision"
   viewBox="0 0 1693.7 2540.3"
   version="1.1"
   id="svg34"
   sodipodi:docname="logo4.svg"
   inkscape:version="0.92.4 (5da689c313, 2019-01-14)">
  <metadata
     id="metadata40">
    <rdf:RDF>
      <cc:Work
         rdf:about="">
        <dc:format>image/svg+xml</dc:format>
        <dc:type
           rdf:resource="http://purl.org/dc/dcmitype/StillImage" />
        <dc:title />
      </cc:Work>
    </rdf:RDF>
  </metadata>
  <defs
     id="defs38" />
  <sodipodi:namedview
     pagecolor="#ffffff"
     bordercolor="#666666"
     borderopacity="1"
     objecttolerance="10"
     gridtolerance="10"
     guidetolerance="10"
     inkscape:pageopacity="0"
     inkscape:pageshadow="2"
     inkscape:window-width="1920"
     inkscape:window-height="1017"
     id="namedview36"
     showgrid="false"
     inkscape:zoom="8.8333333"
     inkscape:cx="-4.7924525"
     inkscape:cy="48"
     inkscape:window-x="-8"
     inkscape:window-y="-8"
     inkscape:window-maximized="1"
     inkscape:current-layer="svg34" />
  <g
     id="g30"
     fill="#ffdb99"
     style="fill:#004080;fill-opacity:1">
    <path
       d="M0-.08v2540.544h1.5c.028-467.092 378.248-845.963 845.34-846.795V-.08H-.01z"
       id="path26"
       style="fill:#004080;fill-opacity:1" />
    <circle
       cx="846.83"
       cy="846.75"
       r="846.83"
       id="circle28"
       style="fill:#004080;fill-opacity:1" />
  </g>
  <path
     d="M734.34 1087.4h74.996c49.998 0 40.623 6.25 46.873-28.124 6.25-43.748 15.624-87.496 21.874-131.24s15.624-84.37 21.874-128.12c6.25-46.873 9.375-93.745 15.624-137.5-3.125 25 43.748 415.6 46.873 421.85 3.125 3.125-3.125 0 3.125 3.125h87.496c6.25-9.374 125-278.1 137.5-309.36 15.624-34.373 28.124-71.87 40.623-106.24 0 28.124-15.624 71.872-21.874 99.995-6.25 34.373-49.998 296.86-49.998 315.6h143.74l68.747-403.1h65.622c18.75 46.873 21.874 159.37 15.624 212.5-21.874 178.12-128.12 337.48-275 428.1-196.87 118.74-440.6 125-643.72 3.125-25-15.624-56.247-37.498-68.747-46.873 6.25-9.375 12.5-6.25 18.75-15.624l-181.24-62.497 18.75 168.74c9.375-3.125 25-15.624 34.373-21.874 9.375 6.25 15.624 12.5 21.874 18.75 25 18.75 37.498 28.124 65.622 46.873 99.995 65.622 212.5 109.37 337.48 118.74 428.1 40.623 803.1-287.5 796.84-715.6-3.125-62.497-12.5-134.37-34.373-193.74-3.125-9.375-18.75-49.998-18.75-53.122h-346.86l-118.74 265.6-31.248-265.6H821.83zM265.6 974.9c-18.75-53.122-21.874-153.12-12.5-212.5 46.873-396.86 478.1-624.97 837.46-471.85 37.498 15.624 125 62.497 146.87 87.496l-21.874 18.75 181.24 62.497-18.75-168.74c-9.374 3.125-28.124 18.75-37.498 21.874-25-12.5-59.372-59.372-184.37-115.62-371.86-168.74-828.08 0-981.2 387.48-62.497 156.24-65.622 346.86 0 503.1 59.372 0 231.24 3.125 278.1-9.374 37.498-9.375 74.996-34.373 90.62-53.122 31.248-37.498 81.246-131.24 106.24-178.12l156.24-275H662.46l-112.5 203.12-62.497-203.12h-162.5c6.25 21.874 18.75 43.748 25 65.622l109.37 265.6c6.25 15.624 12.5 21.874 3.125 34.373-6.25 12.5-9.375 15.624-21.874 21.874-31.248 21.874-128.12 15.624-175 15.624z"
     fill="#1d2b3a"
     id="path32"
     style="fill:#ffffff;fill-opacity:1" />
</svg>
