<?xml version="1.0" encoding="UTF-8"?>
<!DOCTYPE svg PUBLIC "-//W3C//DTD SVG 1.1//EN" "http://www.w3.org/Graphics/SVG/1.1/DTD/svg11.dtd">
<svg xmlns="http://www.w3.org/2000/svg" xml:space="preserve" width="100mm" height="97.066mm" version="1.1" style="shape-rendering:geometricPrecision; text-rendering:geometricPrecision; image-rendering:optimizeQuality; fill-rule:evenodd; clip-rule:evenodd"
viewBox="0 0 10000 9707"
 xmlns:xlink="http://www.w3.org/1999/xlink">
 <g id="Слой_x0020_1">
  <ellipse fill="#FFDB99" cx="4980" cy="4761" rx="4508" ry="4240"/>
  <path fill="#1D2B3A" d="M4194 6590c154,14 355,3 514,3 337,0 281,45 320,-196 48,-299 100,-594 149,-893 49,-302 102,-596 145,-898 43,-303 63,-634 114,-931 -17,167 291,2858 318,2900 31,28 -19,2 28,14l603 3c40,-48 855,-1907 951,-2129 100,-232 183,-503 285,-726 -11,183 -110,495 -150,693 -48,235 -364,2047 -362,2163l994 1 472 -2781 455 0c138,319 152,1095 109,1467 -142,1222 -878,2334 -1897,2950 -1351,816 -3038,868 -4429,37 -187,-112 -390,-274 -477,-324 50,-75 81,-45 128,-109l-1263 -441 145 1160c52,-14 174,-105 234,-140 62,29 97,77 151,119 175,140 247,203 452,337 679,447 1468,739 2323,817 2964,272 5553,-1985 5492,-4934 -10,-446 -89,-928 -226,-1344 -22,-65 -131,-343 -132,-374l-2392 3 -811 1830 -221 -1833 -1435 1 -587 3555z"/>
  <path fill="#1D2B3A" d="M960 5819c-134,-359 -152,-1059 -104,-1465 329,-2738 3305,-4303 5791,-3246 257,109 850,422 1007,606l-153 112 1263 440 -145 -1159c-64,15 -183,117 -262,152 -164,-92 -408,-414 -1265,-807 -2552,-1168 -5711,14 -6766,2666 -430,1083 -443,2401 1,3477 416,0 1589,30 1925,-57 246,-63 503,-232 618,-369 215,-258 563,-909 740,-1233 110,-201 967,-1761 1062,-1902l-982 1 -772 1405 -439 -1406 -1119 4c48,148 124,305 183,455l749 1843c43,105 86,138 25,223 -59,83 -79,111 -162,163 -219,140 -889,98 -1195,97z"/>
 </g>
</svg>
