<?xml version="1.0" encoding="UTF-8"?>
<!DOCTYPE svg PUBLIC "-//W3C//DTD SVG 1.1//EN" "http://www.w3.org/Graphics/SVG/1.1/DTD/svg11.dtd">
<svg xmlns="http://www.w3.org/2000/svg" xml:space="preserve" width="5.4186mm" height="5.4186mm" version="1.1" style="shape-rendering:geometricPrecision; text-rendering:geometricPrecision; image-rendering:optimizeQuality; fill-rule:evenodd; clip-rule:evenodd"
viewBox="0 0 542 542"
 xmlns:xlink="http://www.w3.org/1999/xlink">
 <g>
  <rect fill="#FFDB99" width="542" height="542"/>
  <path fill="#1D2B3A" d="M235 348c8,0 17,0 24,0 16,0 13,2 15,-9 2,-14 5,-28 7,-42 2,-14 5,-27 7,-41 2,-15 3,-30 5,-44 -1,8 14,133 15,135 1,1 -1,0 1,1l28 0c2,-3 40,-89 44,-99 5,-11 9,-23 13,-34 0,9 -5,23 -7,32 -2,11 -16,95 -16,101l46 0 22 -129 21 0c6,15 7,51 5,68 -7,57 -41,108 -88,137 -63,38 -141,40 -206,1 -8,-5 -18,-12 -22,-15 2,-3 4,-2 6,-5l-58 -20 6 54c3,-1 8,-5 11,-7 3,2 5,4 7,6 8,6 12,9 21,15 32,21 68,35 108,38 137,13 257,-92 255,-229 -1,-20 -4,-43 -11,-62 -1,-3 -6,-16 -6,-17l-111 0 -38 85 -10 -85 -66 0 -28 165z"/>
  <path fill="#1D2B3A" d="M85 312c-6,-17 -7,-49 -4,-68 15,-127 153,-200 268,-151 12,5 40,20 47,28l-7 6 58 20 -6 -54c-3,1 -9,6 -12,7 -8,-4 -19,-19 -59,-37 -119,-54 -265,0 -314,124 -20,50 -21,111 0,161 19,0 74,1 89,-3 12,-3 24,-11 29,-17 10,-12 26,-42 34,-57 5,-9 45,-82 50,-88l-46 0 -36 65 -20 -65 -52 0c2,7 6,14 8,21l35 85c2,5 4,7 1,11 -2,4 -3,5 -7,7 -10,7 -41,5 -56,5z"/>
 </g>
</svg>
