<svg xmlns="http://www.w3.org/2000/svg" width="528.899" height="528.899" xmlns:v="https://vecta.io/nano"><path d="M411.407 38.9a40.34 40.34 0 0 0-28.633 11.89L343.67 90.085l91.54 91.99 45.614-45.836c12.237-12.297 12.237-32.13 0-44.426L440 50.79c-7.888-7.927-18.238-11.9-28.593-11.9zM96.625 75.635a19.605 19.605 0 0 0-14.149 33.467L419.8 446.422a19.605 19.605 0 0 0 27.725-27.725L323.303 294.476l88.06-88.5L319.82 114l-88.273 88.725L110.2 81.377a19.605 19.605 0 0 0-13.576-5.742zm88.95 173.297L88.16 346.846l91.49 91.99 97.675-98.154zm-122.2 122.823l-23.12 104.387c-1.666 7.534 5.104 14.286 12.602 12.454l102.005-24.853z" fill="#8e836a"/></svg>