<svg xmlns="http://www.w3.org/2000/svg" viewBox="0 0 24 24"><path fill="#8e836a" d="M14.813 2a1.98 1.98 0 0 0-1.406.594l-1.5 1.5-1-1L9.5 4.5l2.313 2.313-2.625 2.594 1.406 1.406 2.594-2.625 2.625 2.625-2.625 2.594 1.406 1.406 2.594-2.625L19.5 14.5l1.406-1.406-1-1 1.5-1.5c.8-.8.8-1.98 0-2.78L19.5 5.906l2.5-2.5L20.594 2l-2.5 2.5-1.906-1.906c-.4-.4-.875-.594-1.375-.594zM4.406 9.594L3 11l1 1-1.406 1.406c-.8.8-.8 1.98 0 2.78L4.5 18.094l-2.5 2.5L3.406 22l2.5-2.5 1.906 1.906c.8.8 1.98.8 2.78 0L12 20l1 1 1.406-1.406-10-10z"/></svg>