<svg xmlns="http://www.w3.org/2000/svg" width="20.481" height="30.081" viewBox="0 0 542 796" shape-rendering="geometricPrecision" image-rendering="optimizeQuality" fill-rule="evenodd"><path fill="#ffdb99" d="M0 0h271v271H0z"/><circle fill="#ffdb99" cx="271" cy="271" r="271"/><path d="M235 348h24c16 0 13 2 15-9 2-14 5-28 7-42s5-27 7-41c2-15 3-30 5-44-1 8 14 133 15 135 1 1-1 0 1 1h28c2-3 40-89 44-99 5-11 9-23 13-34 0 9-5 23-7 32-2 11-16 95-16 101h46l22-129h21c6 15 7 51 5 68-7 57-41 108-88 137-63 38-141 40-206 1-8-5-18-12-22-15 2-3 4-2 6-5l-58-20 6 54c3-1 8-5 11-7 3 2 5 4 7 6 8 6 12 9 21 15 32 21 68 35 108 38 137 13 257-92 255-229-1-20-4-43-11-62-1-3-6-16-6-17H377l-38 85-10-85h-66l-28 165zM85 312c-6-17-7-49-4-68C96 117 234 44 349 93c12 5 40 20 47 28l-7 6 58 20-6-54c-3 1-9 6-12 7-8-4-19-19-59-37C251 9 105 63 56 187c-20 50-21 111 0 161 19 0 74 1 89-3 12-3 24-11 29-17 10-12 26-42 34-57l50-88h-46l-36 65-20-65h-52c2 7 6 14 8 21l35 85c2 5 4 7 1 11-2 4-3 5-7 7-10 7-41 5-56 5z" fill="#1d2b3a"/><g fill="#ffdb99"><path d="M271 542H0V271c0 156 135 271 271 271z"/><path d="M271 521H0v271c0-157 135-271 271-271z"/></g></svg>